# xmcd
#
# Track frame offsets: 
#        150
#        12692
#        24356
#        36098
#        42383
#        56507
#        66697
#        80277
#        89935
#        104985
#        121029
#        136259
#        152772
#        169770
#        187829
#        206023
#        223868
#        239831
#        256326
#        268776
#        284674
#        301394
#        317620
#
# Disc length: 4449 seconds
#
# Revision: 0
# Processed by: cddbd v1.5.2PL0 Copyright (c) Steve Scherf et al.
# Submitted via: ExactAudioCopy v0.99pb5
#
DISCID=63115f17
DTITLE=The Beatles  - Contemporary Sound - Complete Revisionist Remixe
DTITLE=s D 7
DYEAR=1900
DGENRE=
TTITLE0=Get Back (ant laser)
TTITLE1=Get Back (ant dvd)
TTITLE2=Get Back (libn)
TTITLE3=Get Back (LOVE)
TTITLE4=Get Back (rockband)
TTITLE5=Don_t Let Me Down (imagine laser)
TTITLE6=Don_t Let Me Down (ant laser)
TTITLE7=Don_t Let Me Down (ant dvd)
TTITLE8=Don_t Let Me Down (libn)
TTITLE9=Don_t Let Me Down (rockband)
TTITLE10=Two Of Us (libn)
TTITLE11=Dig a Pony (libn)
TTITLE12=Dig a Pony (rockband)
TTITLE13=Let It Be (ant laser)
TTITLE14=Let It Be (ant dvd)
TTITLE15=Let It Be (libn)
TTITLE16=I_ve Got a Feeling (libn)
TTITLE17=I_ve Got a Feeling (rockband)
TTITLE18=One After 909 (libn)
TTITLE19=The Long and Winding Road (ant laser)
TTITLE20=The Long and Winding Road (ant 3)
TTITLE21=The Long and Winding Road (ant dvd)
TTITLE22=The Long and Winding Road (libn)
EXTD=
EXTT0=
EXTT1=
EXTT2=
EXTT3=
EXTT4=
EXTT5=
EXTT6=
EXTT7=
EXTT8=
EXTT9=
EXTT10=
EXTT11=
EXTT12=
EXTT13=
EXTT14=
EXTT15=
EXTT16=
EXTT17=
EXTT18=
EXTT19=
EXTT20=
EXTT21=
EXTT22=
PLAYORDER=
